<svg xmlns="http://www.w3.org/2000/svg" xmlns:xlink="http://www.w3.org/1999/xlink" contentStyleType="text/css" height="532px" preserveAspectRatio="none" style="width:1017px;height:532px;background:#FFFFFF;" version="1.1" viewBox="0 0 1017 532" width="1017px" zoomAndPan="magnify"><script xmlns=""/><defs/><g><!--entity p--><g id="elem_p"><ellipse cx="69.0161" cy="261" fill="#F1F1F1" rx="8" ry="8" style="stroke:#0000FF;stroke-width:0.5;"/><path d="M69.0161,269 L69.0161,296 M56.0161,277 L82.0161,277 M69.0161,296 L56.0161,311 M69.0161,296 L82.0161,311 " fill="none" style="stroke:#0000FF;stroke-width:0.5;"/><text fill="#0000FF" font-family="sans-serif" font-size="14" lengthAdjust="spacing" textLength="96.0723" x="20.98" y="325.4951">Data Provider</text></g><!--entity c--><g id="elem_c"><ellipse cx="69.0228" cy="394" fill="#F1F1F1" rx="8" ry="8" style="stroke:#008000;stroke-width:0.5;"/><path d="M69.0228,402 L69.0228,429 M56.0228,410 L82.0228,410 M69.0228,429 L56.0228,444 M69.0228,429 L82.0228,444 " fill="none" style="stroke:#008000;stroke-width:0.5;"/><text fill="#008000" font-family="sans-serif" font-size="14" lengthAdjust="spacing" textLength="109.2656" x="14.39" y="458.4951">Data Consumer</text></g><!--entity o--><g id="elem_o"><ellipse cx="69.0238" cy="125" fill="#F1F1F1" rx="8" ry="8" style="stroke:#181818;stroke-width:0.5;"/><path d="M69.0238,133 L69.0238,160 M56.0238,141 L82.0238,141 M69.0238,160 L56.0238,175 M69.0238,160 L82.0238,175 " fill="none" style="stroke:#181818;stroke-width:0.5;"/><text fill="#000000" font-family="sans-serif" font-size="14" lengthAdjust="spacing" textLength="88.8877" x="24.58" y="189.4951">Orchestrator</text></g><!--entity cm--><g id="elem_cm"><ellipse cx="69.0205" cy="14" fill="#F1F1F1" rx="8" ry="8" style="stroke:#181818;stroke-width:0.5;"/><path d="M69.0205,22 L69.0205,49 M56.0205,30 L82.0205,30 M69.0205,49 L56.0205,64 M69.0205,49 L82.0205,64 " fill="none" style="stroke:#181818;stroke-width:0.5;"/><text fill="#000000" font-family="sans-serif" font-size="14" lengthAdjust="spacing" textLength="126.041" x="6" y="78.4951">Contract Manager</text></g><g id="elem_uc_manage"><ellipse cx="279.4719" cy="154.6464" fill="#F1F1F1" rx="86.4319" ry="19.6864" style="stroke:#181818;stroke-width:0.5;"/><text fill="#000000" font-family="sans-serif" font-size="14" lengthAdjust="spacing" textLength="133.6152" x="212.6642" y="157.4931">Manage Templates</text></g><g id="elem_uc_templates"><ellipse cx="279.4733" cy="43.6527" fill="#F1F1F1" rx="79.2633" ry="18.2527" style="stroke:#181818;stroke-width:0.5;"/><text fill="#000000" font-family="sans-serif" font-size="14" lengthAdjust="spacing" textLength="116.7305" x="219.1594" y="47.115">Fetch Templates</text></g><g id="elem_uc_aov"><ellipse cx="279.4653" cy="224.6451" fill="#F1F1F1" rx="65.0753" ry="15.4151" style="stroke:#0000FF;stroke-width:0.5;"/><text fill="#0000FF" font-family="sans-serif" font-size="14" lengthAdjust="spacing" textLength="78.9961" x="236.9672" y="228.3926">Create AoV</text></g><g id="elem_uc_pov"><ellipse cx="279.4682" cy="290.6476" fill="#F1F1F1" rx="64.6882" ry="15.3376" style="stroke:#0000FF;stroke-width:0.5;"/><text fill="#0000FF" font-family="sans-serif" font-size="14" lengthAdjust="spacing" textLength="77.8613" x="237.5375" y="294.3952">Create PoV</text></g><g id="elem_uc_aov_c"><ellipse cx="279.4737" cy="423.6507" fill="#F1F1F1" rx="63.8037" ry="15.1607" style="stroke:#008000;stroke-width:0.5;"/><text fill="#008000" font-family="sans-serif" font-size="14" lengthAdjust="spacing" textLength="75.2363" x="238.8555" y="427.3983">Check AoV</text></g><g id="elem_uc_pov_c"><ellipse cx="279.4661" cy="488.6452" fill="#F1F1F1" rx="63.4261" ry="15.0852" style="stroke:#008000;stroke-width:0.5;"/><text fill="#008000" font-family="sans-serif" font-size="14" lengthAdjust="spacing" textLength="74.1016" x="239.4154" y="492.3928">Check PoV</text></g><g id="elem_uc_verdict"><ellipse cx="279.4656" cy="357.6451" fill="#F1F1F1" rx="68.8256" ry="16.1651" style="stroke:#181818;stroke-width:0.5;"/><text fill="#000000" font-family="sans-serif" font-size="14" lengthAdjust="spacing" textLength="89.6191" x="231.656" y="361.3927">Send Verdict</text></g><g id="elem_uc_verif"><ellipse cx="602.3158" cy="470.6532" fill="#F1F1F1" rx="111.4158" ry="24.6832" style="stroke:#008000;stroke-width:0.5;"/><text fill="#008000" font-family="sans-serif" font-size="14" lengthAdjust="spacing" textLength="188.9385" x="507.8466" y="473.4998">Verify Verifiable Credential</text></g><g id="elem_uc_verif_meta"><ellipse cx="924.0282" cy="433.6496" fill="#F1F1F1" rx="87.2982" ry="19.8596" style="stroke:#008000;stroke-width:0.5;"/><text fill="#008000" font-family="sans-serif" font-size="14" lengthAdjust="spacing" textLength="135.5977" x="856.2294" y="436.4963">Verify VC Metadata</text></g><g id="elem_uc_verif_cont"><ellipse cx="924.0341" cy="507.6508" fill="#F1F1F1" rx="82.7041" ry="18.9408" style="stroke:#008000;stroke-width:0.5;"/><text fill="#008000" font-family="sans-serif" font-size="14" lengthAdjust="spacing" textLength="124.9814" x="860.8495" y="510.7308">Verify VC Content</text></g><g id="elem_uc_aov_self"><ellipse cx="602.3204" cy="261.6541" fill="#F1F1F1" rx="103.4704" ry="23.0941" style="stroke:#0000FF;stroke-width:0.5;"/><text fill="#0000FF" font-family="sans-serif" font-size="14" lengthAdjust="spacing" textLength="171.6777" x="516.4815" y="264.5008">Create self-attested AoV</text></g><g id="elem_uc_aov_3"><ellipse cx="602.3195" cy="183.6499" fill="#F1F1F1" rx="87.6995" ry="19.9399" style="stroke:#0000FF;stroke-width:0.5;"/><text fill="#0000FF" font-family="sans-serif" font-size="14" lengthAdjust="spacing" textLength="136.5137" x="534.0627" y="186.4966">Get third-party AoV</text></g><g id="elem_uc_reev"><ellipse cx="602.3238" cy="374.6548" fill="#F1F1F1" rx="81.6238" ry="18.7248" style="stroke:#008000;stroke-width:0.5;"/><text fill="#008000" font-family="sans-serif" font-size="14" lengthAdjust="spacing" textLength="122.4248" x="540.0404" y="377.8548">Re-Evaluate Data</text></g><!--reverse link uc_aov to uc_aov_3--><g id="link_uc_aov_uc_aov_3"><path d="M355.3146,215.0865 C407.5446,208.4065 467.4,200.76 524.97,193.41 " fill="none" id="uc_aov-backto-uc_aov_3" style="stroke:#181818;stroke-width:1.0;"/><polygon fill="none" points="337.46,217.37,356.0757,221.038,354.5534,209.135,337.46,217.37" style="stroke:#181818;stroke-width:1.0;"/></g><!--reverse link uc_aov to uc_aov_self--><g id="link_uc_aov_uc_aov_self"><path d="M356.4614,233.4131 C404.1314,238.9131 454.62,244.73 509.66,251.08 " fill="none" id="uc_aov-backto-uc_aov_self" style="stroke:#181818;stroke-width:1.0;"/><polygon fill="none" points="338.58,231.35,355.7737,239.3736,357.1491,227.4526,338.58,231.35" style="stroke:#181818;stroke-width:1.0;"/></g><!--link o to uc_manage--><g id="link_o_uc_manage"><path d="M113.72,154.65 C136.64,154.65 159.54,154.65 186.71,154.65 " fill="none" id="o-to-uc_manage" style="stroke:#181818;stroke-width:1.0;"/><polygon fill="#181818" points="192.71,154.65,183.71,150.65,187.71,154.65,183.71,158.65,192.71,154.65" style="stroke:#181818;stroke-width:1.0;"/></g><!--link cm to uc_templates--><g id="link_cm_uc_templates"><path d="M132.28,43.65 C153.52,43.65 171.54,43.65 193.89,43.65 " fill="none" id="cm-to-uc_templates" style="stroke:#181818;stroke-width:1.0;"/><polygon fill="#181818" points="199.89,43.65,190.89,39.65,194.89,43.65,190.89,47.65,199.89,43.65" style="stroke:#181818;stroke-width:1.0;"/></g><!--link uc_aov_c to uc_verif--><g id="link_uc_aov_c_uc_verif"><path d="M334.54,431.57 C381.95,438.51 445.9934,447.9004 502.3834,456.1604 " fill="none" id="uc_aov_c-to-uc_verif" style="stroke:#181818;stroke-width:1.0;stroke-dasharray:7.0,7.0;"/><polygon fill="#181818" points="508.32,457.03,499.9948,451.7678,503.3728,456.3053,498.8353,459.6834,508.32,457.03" style="stroke:#181818;stroke-width:1.0;"/><text fill="#000000" font-family="sans-serif" font-size="13" lengthAdjust="spacing" textLength="63.0068" x="396.9" y="436.7169">«include»</text></g><!--link uc_pov_c to uc_verif--><g id="link_uc_pov_c_uc_verif"><path d="M342.77,490.56 C359.98,491.01 378.67,491.43 395.9,491.65 C424.79,492.02 432.1,493.79 460.9,491.65 C477.99,490.38 490.2078,489.0808 507.5878,486.6508 " fill="none" id="uc_pov_c-to-uc_verif" style="stroke:#181818;stroke-width:1.0;stroke-dasharray:7.0,7.0;"/><polygon fill="#181818" points="513.53,485.82,504.0628,483.1048,508.5782,486.5123,505.1706,491.0277,513.53,485.82" style="stroke:#181818;stroke-width:1.0;"/><text fill="#000000" font-family="sans-serif" font-size="13" lengthAdjust="spacing" textLength="63.0068" x="396.9" y="487.7169">«include»</text></g><!--reverse link uc_verif to uc_verif_meta--><g id="link_uc_verif_uc_verif_meta"><path d="M707.8102,458.5603 C753.9602,453.2203 802.18,447.64 845.36,442.64 " fill="none" id="uc_verif-backto-uc_verif_meta" style="stroke:#181818;stroke-width:1.0;stroke-dasharray:7.0,7.0;"/><polygon fill="#181818" points="701.85,459.25,711.2501,462.189,706.8169,458.6753,710.3306,454.242,701.85,459.25" style="stroke:#181818;stroke-width:1.0;"/><text fill="#000000" font-family="sans-serif" font-size="13" lengthAdjust="spacing" textLength="61.1851" x="744.74" y="443.7169">«extend»</text></g><!--reverse link uc_verif to uc_verif_cont--><g id="link_uc_verif_uc_verif_cont"><path d="M707.8102,482.7396 C755.4302,488.2496 805.63,494.06 849.45,499.13 " fill="none" id="uc_verif-backto-uc_verif_cont" style="stroke:#181818;stroke-width:1.0;stroke-dasharray:7.0,7.0;"/><polygon fill="#181818" points="701.85,482.05,710.3306,487.058,706.8169,482.6247,711.2501,479.111,701.85,482.05" style="stroke:#181818;stroke-width:1.0;"/><text fill="#000000" font-family="sans-serif" font-size="13" lengthAdjust="spacing" textLength="61.1851" x="744.74" y="482.7169">«extend»</text></g><!--reverse link uc_aov_c to uc_reev--><g id="link_uc_aov_c_uc_reev"><path d="M340.1111,414.5434 C394.8711,406.1734 474.08,394.08 533.47,385.01 " fill="none" id="uc_aov_c-backto-uc_reev" style="stroke:#181818;stroke-width:1.0;stroke-dasharray:7.0,7.0;"/><polygon fill="#181818" points="334.18,415.45,343.6811,418.0442,339.1226,414.6945,342.4723,410.1361,334.18,415.45" style="stroke:#181818;stroke-width:1.0;"/><text fill="#000000" font-family="sans-serif" font-size="13" lengthAdjust="spacing" textLength="61.1851" x="397.9" y="391.7169">«extend»</text></g><!--link p to uc_aov--><g id="link_p_uc_aov"><path d="M117.32,275.67 C154.08,264.03 198.7398,249.8908 233.3298,238.9408 " fill="none" id="p-to-uc_aov" style="stroke:#181818;stroke-width:1.0;"/><polygon fill="#181818" points="239.05,237.13,229.2625,236.0328,234.2832,238.639,231.6769,243.6597,239.05,237.13" style="stroke:#181818;stroke-width:1.0;"/></g><!--link p to uc_pov--><g id="link_p_uc_pov"><path d="M117.32,290.65 C146.03,290.65 177.05,290.65 208.37,290.65 " fill="none" id="p-to-uc_pov" style="stroke:#181818;stroke-width:1.0;"/><polygon fill="#181818" points="214.37,290.65,205.37,286.65,209.37,290.65,205.37,294.65,214.37,290.65" style="stroke:#181818;stroke-width:1.0;"/></g><!--link c to uc_aov_c--><g id="link_c_uc_aov_c"><path d="M123.97,423.65 C151.96,423.65 180.31,423.65 209.5,423.65 " fill="none" id="c-to-uc_aov_c" style="stroke:#181818;stroke-width:1.0;"/><polygon fill="#181818" points="215.5,423.65,206.5,419.65,210.5,423.65,206.5,427.65,215.5,423.65" style="stroke:#181818;stroke-width:1.0;"/></g><!--link c to uc_pov_c--><g id="link_c_uc_pov_c"><path d="M123.97,440.47 C160.16,451.76 201.2617,464.5749 233.8317,474.7249 " fill="none" id="c-to-uc_pov_c" style="stroke:#181818;stroke-width:1.0;"/><polygon fill="#181818" points="239.56,476.51,232.1577,470.0134,234.7864,475.0224,229.7775,477.6511,239.56,476.51" style="stroke:#181818;stroke-width:1.0;"/></g><!--link p to uc_verdict--><g id="link_p_uc_verdict"><path d="M117.32,305.85 C153.48,317.47 197.1079,331.4938 231.6379,342.5938 " fill="none" id="p-to-uc_verdict" style="stroke:#181818;stroke-width:1.0;"/><polygon fill="#181818" points="237.35,344.43,230.006,337.8676,232.5899,342.8998,227.5577,345.4838,237.35,344.43" style="stroke:#181818;stroke-width:1.0;"/></g><!--link c to uc_verdict--><g id="link_c_uc_verdict"><path d="M123.97,406.57 C159.2,395.41 198.7796,382.8803 231.1996,372.6203 " fill="none" id="c-to-uc_verdict" style="stroke:#181818;stroke-width:1.0;"/><polygon fill="#181818" points="236.92,370.81,227.1325,369.7119,232.153,372.3186,229.5463,377.3391,236.92,370.81" style="stroke:#181818;stroke-width:1.0;"/></g><!--SRC=[ZP8xJyCm4CTtVmfBB6585hPGLK8jC5LKWBfMhdrjB9muSYuHbVZmNDuFaeh9zlz-TxwNWJDojDpfIuHSQGSIjKqO2xS21TyxMsW5BkGYuoc_Cpg1y6HoU4JunkhMa1kRP7bSaYKg6_JY09AQhQuiV7CoWWoTG5j7jImaNn8ayfr8nANvJSQCURN0Fo5EZK38xajBBeznfJFl1L16VytO2ipREA0BVxA7rYXiCLz8o-vxDbrc8v1Vax37nR8RV1pv1lu1YU87S4fBR3sA-abT8OC-NtbrQ74om2bp1GbgOGQqFY_6RoDi-0vGA1hWoEyOa_eFvt9mzEtOLvAuvDlrE0DpzWNIY13Kj8sbSQ7jhq3h6ccd_5Gul4uz7-RTcFSE_dCXJ5x-lHsKIraLYyasoxBwyVtkWpcnp9Snotr_FLXE9kDMwVUHTPiI1Ej-JY5VhNGYJQvWlMRTUjnWMAUlWc0ok9AaCcY7wc0pN3Ma4TTdre1LQyP8sXP4OF-WN9aSM8woVrPr31pR9POJuHS0]--></g></svg>